<?xml version="1.0" encoding="UTF-8" standalone="no"?>
<!DOCTYPE svg PUBLIC "-//W3C//DTD SVG 1.1//EN"
 "http://www.w3.org/Graphics/SVG/1.1/DTD/svg11.dtd">
<!-- Generated by graphviz version 2.40.1 (20161225.0304)
 -->
<!-- Title: G Pages: 1 -->
<svg width="638pt" height="410pt"
 viewBox="0.00 0.00 638.16 410.00" xmlns="http://www.w3.org/2000/svg" xmlns:xlink="http://www.w3.org/1999/xlink">
<g id="graph0" class="graph" transform="scale(1 1) rotate(0) translate(4 406)">
<title>G</title>
<polygon fill="#ffffff" stroke="transparent" points="-4,4 -4,-406 634.1649,-406 634.1649,4 -4,4"/>
<g id="clust1" class="cluster">
<title>cluster_Global</title>
<path fill="none" stroke="#c0c0c0" d="M455.1649,-8C455.1649,-8 610.1649,-8 610.1649,-8 616.1649,-8 622.1649,-14 622.1649,-20 622.1649,-20 622.1649,-382 622.1649,-382 622.1649,-388 616.1649,-394 610.1649,-394 610.1649,-394 455.1649,-394 455.1649,-394 449.1649,-394 443.1649,-388 443.1649,-382 443.1649,-382 443.1649,-20 443.1649,-20 443.1649,-14 449.1649,-8 455.1649,-8"/>
<text text-anchor="middle" x="532.6649" y="-381.2" font-family="Times,serif" font-size="11.00" fill="#c0c0c0">Global</text>
</g>
<g id="clust2" class="cluster">
<title>cluster_\Olbe19</title>
<path fill="none" stroke="#c0c0c0" d="M463.1649,-16C463.1649,-16 602.1649,-16 602.1649,-16 608.1649,-16 614.1649,-22 614.1649,-28 614.1649,-28 614.1649,-354 614.1649,-354 614.1649,-360 608.1649,-366 602.1649,-366 602.1649,-366 463.1649,-366 463.1649,-366 457.1649,-366 451.1649,-360 451.1649,-354 451.1649,-354 451.1649,-28 451.1649,-28 451.1649,-22 457.1649,-16 463.1649,-16"/>
<text text-anchor="middle" x="532.6649" y="-353.2" font-family="Times,serif" font-size="11.00" fill="#c0c0c0">Olbe19</text>
</g>
<g id="clust3" class="cluster">
<title>cluster_\Olbe19\Content</title>
<path fill="none" stroke="#c0c0c0" d="M471.1649,-104C471.1649,-104 594.1649,-104 594.1649,-104 600.1649,-104 606.1649,-110 606.1649,-116 606.1649,-116 606.1649,-326 606.1649,-326 606.1649,-332 600.1649,-338 594.1649,-338 594.1649,-338 471.1649,-338 471.1649,-338 465.1649,-338 459.1649,-332 459.1649,-326 459.1649,-326 459.1649,-116 459.1649,-116 459.1649,-110 465.1649,-104 471.1649,-104"/>
<text text-anchor="middle" x="532.6649" y="-325.2" font-family="Times,serif" font-size="11.00" fill="#c0c0c0">Content</text>
</g>
<g id="clust4" class="cluster">
<title>cluster_\Olbe19\TextFilter</title>
<path fill="none" stroke="#c0c0c0" d="M487.6649,-24C487.6649,-24 577.6649,-24 577.6649,-24 583.6649,-24 589.6649,-30 589.6649,-36 589.6649,-36 589.6649,-84 589.6649,-84 589.6649,-90 583.6649,-96 577.6649,-96 577.6649,-96 487.6649,-96 487.6649,-96 481.6649,-96 475.6649,-90 475.6649,-84 475.6649,-84 475.6649,-36 475.6649,-36 475.6649,-30 481.6649,-24 487.6649,-24"/>
<text text-anchor="middle" x="532.6649" y="-83.2" font-family="Times,serif" font-size="11.00" fill="#c0c0c0">TextFilter</text>
</g>
<!-- \\Olbe19\\Content\\AdminController -->
<g id="node1" class="node">
<title>\\Olbe19\\Content\\AdminController</title>
<polygon fill="none" stroke="#000000" points="591.6649,-310 473.6649,-310 473.6649,-274 591.6649,-274 591.6649,-310"/>
<text text-anchor="middle" x="532.6649" y="-289.2" font-family="Courier,monospace" font-size="11.00" fill="#000000">AdminController</text>
</g>
<!-- \\Anax\\Commons\\AppInjectableInterface -->
<g id="node6" class="node">
<title>\\Anax\\Commons\\AppInjectableInterface</title>
<ellipse fill="none" stroke="#000000" cx="197.5825" cy="-184" rx="197.665" ry="18"/>
<text text-anchor="middle" x="197.5825" y="-180.3" font-family="Times,serif" font-size="14.00" fill="#c0c0c0">\Anax\Commons\AppInjectableInterface</text>
</g>
<!-- \\Olbe19\\Content\\AdminController&#45;&gt;\\Anax\\Commons\\AppInjectableInterface -->
<g id="edge1" class="edge">
<title>\\Olbe19\\Content\\AdminController&#45;&gt;\\Anax\\Commons\\AppInjectableInterface</title>
<path fill="none" stroke="#000000" stroke-dasharray="1,5" d="M473.3838,-274.3494C463.2871,-271.2765 452.9154,-268.0782 443.1649,-265 380.1505,-245.1067 308.4146,-221.3126 258.8167,-204.6795"/>
<polygon fill="none" stroke="#000000" points="259.7954,-201.3161 249.2014,-201.4516 257.5676,-207.9522 259.7954,-201.3161"/>
</g>
<!-- \\Olbe19\\Content\\Content -->
<g id="node2" class="node">
<title>\\Olbe19\\Content\\Content</title>
<polygon fill="none" stroke="#000000" points="564.6649,-256 500.6649,-256 500.6649,-220 564.6649,-220 564.6649,-256"/>
<text text-anchor="middle" x="532.6649" y="-235.2" font-family="Courier,monospace" font-size="11.00" fill="#000000">Content</text>
</g>
<!-- \\Olbe19\\Content\\ContentController -->
<g id="node3" class="node">
<title>\\Olbe19\\Content\\ContentController</title>
<polygon fill="none" stroke="#000000" points="598.1649,-202 467.1649,-202 467.1649,-166 598.1649,-166 598.1649,-202"/>
<text text-anchor="middle" x="532.6649" y="-181.2" font-family="Courier,monospace" font-size="11.00" fill="#000000">ContentController</text>
</g>
<!-- \\Olbe19\\Content\\ContentController&#45;&gt;\\Anax\\Commons\\AppInjectableInterface -->
<g id="edge2" class="edge">
<title>\\Olbe19\\Content\\ContentController&#45;&gt;\\Anax\\Commons\\AppInjectableInterface</title>
<path fill="none" stroke="#000000" stroke-dasharray="1,5" d="M466.8632,-184C448.5169,-184 427.5511,-184 405.5993,-184"/>
<polygon fill="none" stroke="#000000" points="405.4498,-180.5001 395.4498,-184 405.4497,-187.5001 405.4498,-180.5001"/>
</g>
<!-- \\Olbe19\\Content\\UserController -->
<g id="node4" class="node">
<title>\\Olbe19\\Content\\UserController</title>
<polygon fill="none" stroke="#000000" points="588.1649,-148 477.1649,-148 477.1649,-112 588.1649,-112 588.1649,-148"/>
<text text-anchor="middle" x="532.6649" y="-127.2" font-family="Courier,monospace" font-size="11.00" fill="#000000">UserController</text>
</g>
<!-- \\Olbe19\\Content\\UserController&#45;&gt;\\Anax\\Commons\\AppInjectableInterface -->
<g id="edge3" class="edge">
<title>\\Olbe19\\Content\\UserController&#45;&gt;\\Anax\\Commons\\AppInjectableInterface</title>
<path fill="none" stroke="#000000" stroke-dasharray="1,5" d="M476.9567,-138.9776C430.3463,-146.4891 362.4836,-157.4255 305.315,-166.6384"/>
<polygon fill="none" stroke="#000000" points="304.4559,-163.2316 295.1402,-168.2782 305.5697,-170.1425 304.4559,-163.2316"/>
</g>
<!-- \\Olbe19\\TextFilter\\MyTextFilter -->
<g id="node5" class="node">
<title>\\Olbe19\\TextFilter\\MyTextFilter</title>
<polygon fill="none" stroke="#000000" points="581.6649,-68 483.6649,-68 483.6649,-32 581.6649,-32 581.6649,-68"/>
<text text-anchor="middle" x="532.6649" y="-47.2" font-family="Courier,monospace" font-size="11.00" fill="#000000">MyTextFilter</text>
</g>
</g>
</svg>
